<?xml version="1.0" encoding="UTF-8"?>
<svg xmlns="http://www.w3.org/2000/svg" xmlns:xlink="http://www.w3.org/1999/xlink" width="32px" height="32px" viewBox="0 0 32 32" version="1.1">
<g id="surface1">
<path style=" stroke:none;fill-rule:nonzero;fill:rgb(15.686275%,18.82353%,21.568628%);fill-opacity:1;" d="M 15.117188 32.015625 C 15.089844 32.003906 15.070312 31.980469 15.050781 31.976562 C 14.644531 31.878906 14.277344 31.695312 13.921875 31.480469 C 13.601562 31.289062 13.277344 31.097656 12.957031 30.90625 C 12.632812 30.710938 12.304688 30.515625 11.980469 30.324219 C 11.578125 30.085938 11.171875 29.847656 10.769531 29.609375 C 10.363281 29.367188 9.960938 29.125 9.558594 28.886719 C 9.179688 28.664062 8.800781 28.441406 8.425781 28.21875 C 8.023438 27.980469 7.621094 27.738281 7.214844 27.496094 C 6.839844 27.273438 6.464844 27.054688 6.089844 26.832031 C 5.65625 26.574219 5.222656 26.3125 4.789062 26.054688 C 4.484375 25.875 4.179688 25.699219 3.875 25.515625 C 3.636719 25.367188 3.425781 25.191406 3.226562 24.988281 C 3.035156 24.792969 2.851562 24.59375 2.699219 24.363281 C 2.410156 23.917969 2.207031 23.441406 2.105469 22.917969 C 2.082031 22.796875 2.078125 22.671875 2.0625 22.546875 C 2.058594 22.507812 2.050781 22.472656 2.046875 22.425781 C 2.046875 22.296875 2.046875 22.179688 2.046875 22.066406 C 2.046875 18.085938 2.046875 14.109375 2.046875 10.128906 C 2.046875 10.011719 2.046875 9.894531 2.046875 9.777344 C 2.070312 9.582031 2.082031 9.386719 2.125 9.195312 C 2.246094 8.621094 2.496094 8.101562 2.847656 7.628906 C 2.917969 7.535156 3.007812 7.453125 3.085938 7.367188 C 3.125 7.320312 3.15625 7.269531 3.199219 7.226562 C 3.476562 6.957031 3.785156 6.726562 4.125 6.53125 C 4.527344 6.300781 4.921875 6.058594 5.320312 5.820312 C 5.703125 5.59375 6.089844 5.367188 6.472656 5.140625 C 6.78125 4.960938 7.085938 4.777344 7.390625 4.59375 C 7.777344 4.363281 8.167969 4.136719 8.554688 3.902344 C 8.890625 3.703125 9.222656 3.503906 9.558594 3.304688 C 9.914062 3.09375 10.273438 2.882812 10.628906 2.671875 C 10.960938 2.476562 11.292969 2.277344 11.621094 2.082031 C 12.011719 1.851562 12.402344 1.621094 12.792969 1.386719 C 13.101562 1.203125 13.40625 1.019531 13.714844 0.835938 C 13.921875 0.714844 14.125 0.585938 14.34375 0.484375 C 14.671875 0.328125 15.015625 0.199219 15.382812 0.15625 C 15.554688 0.132812 15.730469 0.121094 15.90625 0.109375 C 16.351562 0.0820312 16.78125 0.164062 17.210938 0.28125 C 17.578125 0.378906 17.902344 0.570312 18.226562 0.757812 C 18.574219 0.964844 18.921875 1.171875 19.269531 1.378906 C 19.554688 1.550781 19.839844 1.722656 20.125 1.890625 C 20.46875 2.097656 20.8125 2.296875 21.15625 2.503906 C 21.535156 2.726562 21.910156 2.953125 22.285156 3.175781 C 22.691406 3.417969 23.097656 3.65625 23.503906 3.894531 C 23.789062 4.066406 24.074219 4.238281 24.359375 4.410156 C 24.742188 4.636719 25.125 4.859375 25.507812 5.085938 C 25.816406 5.269531 26.125 5.457031 26.4375 5.640625 C 26.753906 5.832031 27.074219 6.015625 27.394531 6.207031 C 27.722656 6.40625 28.050781 6.597656 28.367188 6.808594 C 28.761719 7.070312 29.078125 7.414062 29.34375 7.804688 C 29.625 8.214844 29.828125 8.65625 29.929688 9.140625 C 29.984375 9.402344 30 9.671875 30.03125 9.953125 C 30.03125 10.105469 30.03125 10.242188 30.03125 10.382812 C 30.03125 14.335938 30.03125 18.292969 30.03125 22.25 C 30.035156 22.582031 29.980469 22.90625 29.890625 23.226562 C 29.773438 23.640625 29.597656 24.03125 29.347656 24.386719 C 29.234375 24.546875 29.101562 24.695312 28.972656 24.847656 C 28.753906 25.113281 28.488281 25.328125 28.203125 25.511719 C 27.875 25.71875 27.539062 25.90625 27.207031 26.105469 C 26.882812 26.296875 26.558594 26.492188 26.234375 26.683594 C 25.882812 26.890625 25.527344 27.097656 25.175781 27.308594 C 24.722656 27.578125 24.269531 27.851562 23.8125 28.121094 C 23.433594 28.34375 23.054688 28.566406 22.675781 28.792969 C 22.273438 29.03125 21.875 29.269531 21.472656 29.507812 C 21.117188 29.71875 20.761719 29.925781 20.40625 30.136719 C 20.121094 30.308594 19.835938 30.480469 19.550781 30.648438 C 19.21875 30.84375 18.890625 31.042969 18.558594 31.234375 C 18.261719 31.40625 17.96875 31.585938 17.660156 31.738281 C 17.445312 31.84375 17.207031 31.90625 16.980469 31.988281 C 16.972656 31.992188 16.964844 32 16.953125 32.011719 C 16.34375 32.015625 15.734375 32.015625 15.117188 32.015625 M 29.011719 8.683594 C 28.714844 8.054688 28.269531 7.5625 27.667969 7.207031 C 25.472656 5.910156 23.28125 4.605469 21.085938 3.304688 C 19.921875 2.613281 18.761719 1.90625 17.582031 1.234375 C 16.5625 0.652344 15.507812 0.652344 14.492188 1.234375 C 13.238281 1.945312 12.011719 2.695312 10.773438 3.429688 C 8.710938 4.652344 6.648438 5.875 4.589844 7.101562 C 4.347656 7.246094 4.101562 7.394531 3.890625 7.578125 C 3.117188 8.253906 2.742188 9.121094 2.742188 10.144531 C 2.738281 14.113281 2.738281 18.082031 2.742188 22.050781 C 2.742188 22.230469 2.753906 22.414062 2.78125 22.59375 C 2.945312 23.617188 3.460938 24.414062 4.351562 24.957031 C 4.714844 25.179688 5.082031 25.394531 5.449219 25.609375 C 8.394531 27.359375 11.34375 29.105469 14.285156 30.859375 C 14.773438 31.148438 15.28125 31.34375 15.851562 31.382812 C 16.082031 31.398438 16.3125 31.382812 16.554688 31.339844 C 16.089844 31.171875 15.859375 30.820312 15.757812 30.378906 C 15.710938 30.160156 15.6875 29.929688 15.6875 29.703125 C 15.683594 26.511719 15.683594 23.320312 15.6875 20.125 C 15.6875 19.378906 15.683594 18.632812 15.6875 17.882812 C 15.6875 17.625 15.734375 17.367188 15.808594 17.117188 C 15.980469 16.5625 16.324219 16.125 16.757812 15.753906 C 17.089844 15.472656 17.460938 15.25 17.828125 15.023438 C 20.980469 13.078125 24.132812 11.128906 27.28125 9.183594 C 27.480469 9.058594 27.691406 8.964844 27.917969 8.914062 C 28.394531 8.808594 28.808594 8.90625 29.121094 9.304688 C 29.171875 9.367188 29.214844 9.441406 29.261719 9.511719 C 29.261719 9.375 29.140625 8.972656 29.011719 8.683594 M 20.222656 21.472656 C 20.136719 21.46875 20.050781 21.476562 19.964844 21.464844 C 19.816406 21.445312 19.664062 21.425781 19.519531 21.386719 C 19.375 21.347656 19.289062 21.238281 19.261719 21.085938 C 19.234375 20.9375 19.246094 20.792969 19.289062 20.648438 C 19.472656 20.050781 20.195312 19.628906 20.835938 19.753906 C 20.910156 19.769531 20.960938 19.75 21 19.695312 C 21.03125 19.648438 21.0625 19.597656 21.078125 19.542969 C 21.117188 19.402344 21.152344 19.257812 21.1875 19.113281 C 21.21875 19 21.25 18.882812 21.273438 18.765625 C 21.296875 18.671875 21.265625 18.585938 21.148438 18.570312 C 20.953125 18.546875 20.765625 18.554688 20.574219 18.597656 C 20.464844 18.625 20.355469 18.664062 20.238281 18.695312 C 20.238281 18.664062 20.238281 18.636719 20.238281 18.609375 C 20.238281 18.359375 20.238281 18.109375 20.230469 17.859375 C 20.230469 17.8125 20.210938 17.746094 20.175781 17.71875 C 20.148438 17.699219 20.078125 17.722656 20.039062 17.746094 C 19.902344 17.824219 19.773438 17.910156 19.636719 17.984375 C 19.496094 18.0625 19.433594 18.179688 19.4375 18.339844 C 19.445312 18.589844 19.445312 18.84375 19.445312 19.097656 C 19.445312 19.125 19.425781 19.167969 19.402344 19.1875 C 19.109375 19.4375 18.863281 19.726562 18.671875 20.0625 C 18.359375 20.613281 18.199219 21.199219 18.28125 21.835938 C 18.339844 22.269531 18.558594 22.578125 18.992188 22.699219 C 19.117188 22.734375 19.25 22.75 19.378906 22.765625 C 19.570312 22.78125 19.761719 22.78125 19.953125 22.796875 C 20.261719 22.828125 20.441406 22.980469 20.492188 23.242188 C 20.507812 23.308594 20.511719 23.382812 20.507812 23.453125 C 20.484375 23.890625 20.277344 24.230469 19.929688 24.484375 C 19.558594 24.75 19.148438 24.875 18.691406 24.761719 C 18.605469 24.742188 18.546875 24.757812 18.5 24.820312 C 18.46875 24.863281 18.441406 24.914062 18.425781 24.964844 C 18.363281 25.222656 18.300781 25.480469 18.242188 25.738281 C 18.210938 25.863281 18.246094 25.917969 18.367188 25.953125 C 18.59375 26.011719 18.824219 25.996094 19.046875 25.945312 C 19.183594 25.914062 19.316406 25.867188 19.460938 25.828125 C 19.460938 25.855469 19.460938 25.878906 19.460938 25.90625 C 19.460938 26.15625 19.464844 26.40625 19.46875 26.65625 C 19.46875 26.785156 19.53125 26.824219 19.644531 26.761719 C 19.796875 26.675781 19.941406 26.585938 20.09375 26.507812 C 20.230469 26.433594 20.28125 26.320312 20.277344 26.171875 C 20.273438 25.921875 20.265625 25.667969 20.265625 25.414062 C 20.261719 25.386719 20.28125 25.34375 20.304688 25.324219 C 20.683594 24.996094 20.984375 24.609375 21.195312 24.152344 C 21.457031 23.585938 21.570312 22.996094 21.453125 22.375 C 21.378906 21.984375 21.171875 21.691406 20.78125 21.570312 C 20.605469 21.515625 20.417969 21.503906 20.222656 21.472656 M 25.550781 23.789062 C 25.550781 23.65625 25.550781 23.523438 25.546875 23.390625 C 25.546875 23.34375 25.527344 23.292969 25.515625 23.246094 C 25.46875 23.261719 25.417969 23.269531 25.375 23.292969 C 24.878906 23.585938 24.382812 23.882812 23.886719 24.179688 C 23.566406 24.375 23.246094 24.566406 22.925781 24.757812 C 22.863281 24.792969 22.804688 24.832031 22.804688 24.910156 C 22.800781 25.132812 22.796875 25.355469 22.804688 25.582031 C 22.804688 25.667969 22.855469 25.6875 22.933594 25.648438 C 22.949219 25.636719 22.96875 25.625 22.984375 25.613281 C 23.765625 25.140625 24.546875 24.667969 25.328125 24.195312 C 25.570312 24.046875 25.546875 24.089844 25.550781 23.789062 Z M 25.550781 23.789062 "/>
<path style=" stroke:none;fill-rule:nonzero;fill:rgb(30.588236%,32.941177%,34.901962%);fill-opacity:1;" d="M 2.039062 9.78125 C 2.046875 9.894531 2.046875 10.011719 2.046875 10.128906 C 2.046875 14.109375 2.046875 18.085938 2.046875 22.066406 C 2.046875 22.179688 2.046875 22.296875 2.046875 22.417969 C 2.039062 22.398438 2.03125 22.367188 2.03125 22.339844 C 2.03125 18.230469 2.03125 14.121094 2.03125 10.007812 C 2.03125 9.933594 2.035156 9.859375 2.039062 9.78125 Z M 2.039062 9.78125 "/>
<path style=" stroke:none;fill-rule:nonzero;fill:rgb(53.333336%,55.29412%,56.470591%);fill-opacity:1;" d="M 30.039062 22.246094 C 30.03125 18.292969 30.03125 14.335938 30.03125 10.382812 C 30.03125 10.242188 30.03125 10.105469 30.03125 9.960938 C 30.035156 9.976562 30.046875 10 30.046875 10.023438 C 30.046875 14.078125 30.046875 18.128906 30.046875 22.183594 C 30.046875 22.203125 30.042969 22.222656 30.039062 22.246094 Z M 30.039062 22.246094 "/>
<path style=" stroke:none;fill-rule:nonzero;fill:rgb(100%,100%,100%);fill-opacity:1;" d="M 29.015625 8.691406 C 29.140625 8.972656 29.261719 9.375 29.261719 9.511719 C 29.214844 9.441406 29.171875 9.367188 29.121094 9.304688 C 28.808594 8.90625 28.394531 8.808594 27.917969 8.914062 C 27.691406 8.964844 27.480469 9.058594 27.28125 9.183594 C 24.132812 11.128906 20.980469 13.078125 17.828125 15.023438 C 17.460938 15.25 17.089844 15.472656 16.757812 15.753906 C 16.324219 16.125 15.980469 16.5625 15.808594 17.117188 C 15.734375 17.367188 15.6875 17.625 15.6875 17.882812 C 15.683594 18.632812 15.6875 19.378906 15.6875 20.125 C 15.683594 23.320312 15.683594 26.511719 15.6875 29.703125 C 15.6875 29.929688 15.710938 30.160156 15.757812 30.378906 C 15.859375 30.820312 16.089844 31.171875 16.554688 31.339844 C 16.3125 31.382812 16.082031 31.398438 15.851562 31.382812 C 15.28125 31.34375 14.773438 31.148438 14.285156 30.859375 C 11.34375 29.105469 8.394531 27.359375 5.449219 25.609375 C 5.082031 25.394531 4.714844 25.179688 4.351562 24.957031 C 3.460938 24.414062 2.945312 23.617188 2.78125 22.59375 C 2.753906 22.414062 2.742188 22.230469 2.742188 22.050781 C 2.738281 18.082031 2.738281 14.113281 2.742188 10.144531 C 2.742188 9.121094 3.117188 8.253906 3.890625 7.578125 C 4.101562 7.394531 4.347656 7.246094 4.589844 7.101562 C 6.648438 5.875 8.710938 4.652344 10.773438 3.429688 C 12.011719 2.695312 13.238281 1.945312 14.492188 1.234375 C 15.507812 0.652344 16.5625 0.652344 17.582031 1.234375 C 18.761719 1.90625 19.921875 2.613281 21.085938 3.304688 C 23.28125 4.605469 25.472656 5.910156 27.667969 7.207031 C 28.269531 7.5625 28.714844 8.054688 29.015625 8.691406 Z M 29.015625 8.691406 "/>
<path style=" stroke:none;fill-rule:nonzero;fill:rgb(99.607843%,99.607843%,99.607843%);fill-opacity:1;" d="M 20.230469 21.472656 C 20.417969 21.503906 20.605469 21.515625 20.78125 21.570312 C 21.171875 21.691406 21.378906 21.984375 21.453125 22.375 C 21.570312 22.996094 21.457031 23.585938 21.195312 24.152344 C 20.984375 24.609375 20.683594 24.996094 20.304688 25.324219 C 20.28125 25.34375 20.261719 25.386719 20.265625 25.414062 C 20.265625 25.667969 20.273438 25.921875 20.277344 26.171875 C 20.28125 26.320312 20.230469 26.433594 20.09375 26.507812 C 19.941406 26.585938 19.796875 26.675781 19.644531 26.761719 C 19.53125 26.824219 19.46875 26.785156 19.46875 26.65625 C 19.464844 26.40625 19.460938 26.15625 19.460938 25.90625 C 19.460938 25.878906 19.460938 25.855469 19.460938 25.828125 C 19.316406 25.867188 19.183594 25.914062 19.046875 25.945312 C 18.824219 25.996094 18.59375 26.011719 18.367188 25.953125 C 18.246094 25.917969 18.210938 25.863281 18.242188 25.738281 C 18.300781 25.480469 18.363281 25.222656 18.425781 24.964844 C 18.441406 24.914062 18.46875 24.863281 18.5 24.820312 C 18.546875 24.757812 18.605469 24.742188 18.691406 24.761719 C 19.148438 24.875 19.558594 24.75 19.929688 24.484375 C 20.277344 24.230469 20.484375 23.890625 20.507812 23.453125 C 20.511719 23.382812 20.507812 23.308594 20.492188 23.242188 C 20.441406 22.980469 20.261719 22.828125 19.953125 22.796875 C 19.761719 22.78125 19.570312 22.78125 19.378906 22.765625 C 19.25 22.75 19.117188 22.734375 18.992188 22.699219 C 18.558594 22.578125 18.339844 22.269531 18.28125 21.835938 C 18.199219 21.199219 18.359375 20.613281 18.671875 20.0625 C 18.863281 19.726562 19.109375 19.4375 19.402344 19.1875 C 19.425781 19.167969 19.445312 19.125 19.445312 19.097656 C 19.445312 18.84375 19.445312 18.589844 19.4375 18.339844 C 19.433594 18.179688 19.496094 18.0625 19.636719 17.984375 C 19.773438 17.910156 19.902344 17.824219 20.039062 17.746094 C 20.078125 17.722656 20.148438 17.699219 20.175781 17.71875 C 20.210938 17.746094 20.230469 17.8125 20.230469 17.859375 C 20.238281 18.109375 20.238281 18.359375 20.238281 18.609375 C 20.238281 18.636719 20.238281 18.664062 20.238281 18.695312 C 20.355469 18.664062 20.464844 18.625 20.574219 18.597656 C 20.765625 18.554688 20.953125 18.546875 21.148438 18.570312 C 21.265625 18.585938 21.296875 18.671875 21.273438 18.765625 C 21.25 18.882812 21.21875 19 21.1875 19.113281 C 21.152344 19.257812 21.117188 19.402344 21.078125 19.542969 C 21.0625 19.597656 21.03125 19.648438 21 19.695312 C 20.960938 19.75 20.910156 19.769531 20.835938 19.753906 C 20.195312 19.628906 19.472656 20.050781 19.289062 20.648438 C 19.246094 20.792969 19.234375 20.9375 19.261719 21.085938 C 19.289062 21.238281 19.375 21.347656 19.519531 21.386719 C 19.664062 21.425781 19.816406 21.445312 19.964844 21.464844 C 20.050781 21.476562 20.136719 21.46875 20.230469 21.472656 Z M 20.230469 21.472656 "/>
<path style=" stroke:none;fill-rule:nonzero;fill:rgb(30.19608%,65.490198%,14.509805%);fill-opacity:1;" d="M 25.550781 23.796875 C 25.546875 24.089844 25.570312 24.046875 25.328125 24.195312 C 24.546875 24.667969 23.765625 25.140625 22.984375 25.613281 C 22.96875 25.625 22.949219 25.636719 22.933594 25.648438 C 22.855469 25.6875 22.804688 25.667969 22.804688 25.582031 C 22.796875 25.355469 22.800781 25.132812 22.804688 24.910156 C 22.804688 24.832031 22.863281 24.792969 22.925781 24.757812 C 23.246094 24.566406 23.566406 24.375 23.886719 24.179688 C 24.382812 23.882812 24.878906 23.585938 25.375 23.292969 C 25.417969 23.269531 25.46875 23.261719 25.515625 23.246094 C 25.527344 23.292969 25.546875 23.34375 25.546875 23.390625 C 25.550781 23.523438 25.550781 23.65625 25.550781 23.796875 Z M 25.550781 23.796875 "/>
</g>
</svg>
